<svg width="51" height="51" viewBox="0 0 51 51" fill="none" xmlns="http://www.w3.org/2000/svg">
<path d="M25.1678 0C11.2752 0 0 11.2752 0 25.1678C0 39.0604 11.2752 50.3356 25.1678 50.3356C39.0604 50.3356 50.3356 39.0604 50.3356 25.1678C50.3356 11.2752 39.0604 0 25.1678 0ZM25.1678 10.0671C30.0252 10.0671 33.9765 14.0185 33.9765 18.8758C33.9765 23.7332 30.0252 27.6846 25.1678 27.6846C20.3104 27.6846 16.3591 23.7332 16.3591 18.8758C16.3591 14.0185 20.3104 10.0671 25.1678 10.0671ZM25.1678 45.302C20.0587 45.302 14.0185 43.2383 9.71477 38.0537C13.9681 34.7315 19.3289 32.7181 25.1678 32.7181C31.0067 32.7181 36.3674 34.7315 40.6208 38.0537C36.3171 43.2383 30.2768 45.302 25.1678 45.302Z" fill="black"/>
</svg>
